<svg xmlns="http://www.w3.org/2000/svg" viewBox="0 0 120 84" fill="#8B1A4A" role="img" aria-label="Health Angels Flügel">
  <path d="M6 26 C 34 8, 70 6, 104 30 C 78 26, 50 30, 24 40 C 18 38, 11 33, 6 26 Z"/>
  <path d="M12 40 C 40 26, 72 26, 104 44 C 80 42, 54 46, 30 54 C 23 51, 16 46, 12 40 Z"/>
  <path d="M22 53 C 48 42, 76 44, 104 56 C 82 55, 58 59, 38 65 C 32 62, 26 58, 22 53 Z"/>
  <path d="M34 64 C 58 56, 80 58, 104 66 C 84 66, 64 70, 48 74 C 43 71, 38 68, 34 64 Z"/>
  <path d="M48 73 C 68 68, 86 69, 104 75 C 88 76, 72 79, 60 81 C 55 79, 51 76, 48 73 Z"/>
</svg>
